<svg width="40" height="40" viewBox="0 0 40 40" fill="none" xmlns="http://www.w3.org/2000/svg">
<rect width="40" height="40" rx="20" fill="#82BC66"/>
<path d="M28.4134 13.9C28.4221 13.8373 28.4221 13.7737 28.4134 13.711C28.4055 13.6582 28.3902 13.6067 28.3679 13.558C28.3438 13.514 28.3163 13.4719 28.2858 13.432C28.2511 13.3751 28.2081 13.3235 28.1581 13.279L28.0487 13.216C27.9961 13.1773 27.9377 13.1469 27.8755 13.126H27.6931C27.6376 13.0729 27.5727 13.0302 27.5017 13H22.9428C22.701 13 22.4691 13.0948 22.2981 13.2636C22.1271 13.4324 22.0311 13.6613 22.0311 13.9C22.0311 14.1387 22.1271 14.3676 22.2981 14.5364C22.4691 14.7052 22.701 14.8 22.9428 14.8H25.5231L21.8761 19.039L17.9372 16.726C17.7507 16.6165 17.5306 16.5762 17.3167 16.6125C17.1028 16.6488 16.909 16.7593 16.7702 16.924L12.2113 22.324C12.1345 22.4149 12.0767 22.5199 12.0411 22.633C12.0055 22.746 11.9928 22.8649 12.0039 22.9828C12.0149 23.1007 12.0493 23.2152 12.1053 23.3199C12.1612 23.4247 12.2375 23.5174 12.3298 23.593C12.4939 23.7272 12.7003 23.8004 12.9134 23.8C13.0473 23.8002 13.1797 23.7713 13.301 23.7153C13.4224 23.6593 13.5297 23.5776 13.6154 23.476L17.6728 18.67L21.5661 20.974C21.7507 21.0821 21.9681 21.1224 22.1799 21.0879C22.3918 21.0533 22.5844 20.946 22.724 20.785L26.5899 16.33V18.4C26.5899 18.6387 26.686 18.8676 26.857 19.0364C27.0279 19.2052 27.2599 19.3 27.5017 19.3C27.7435 19.3 27.9754 19.2052 28.1464 19.0364C28.3174 18.8676 28.4134 18.6387 28.4134 18.4V13.9Z" fill="white"/>
</svg>
