<svg width="40" height="40" viewBox="0 0 40 40" fill="none" xmlns="http://www.w3.org/2000/svg">
<rect width="40" height="40" rx="20" fill="#FF5A5A"/>
<path d="M31.9905 25.8333C32.0032 25.9146 32.0032 25.997 31.9905 26.0783C31.9789 26.1468 31.9565 26.2136 31.9239 26.2767C31.8887 26.3337 31.8486 26.3883 31.804 26.44C31.7533 26.5138 31.6904 26.5806 31.6174 26.6383L31.4575 26.72C31.3805 26.7702 31.2951 26.8096 31.2043 26.8367H30.9377C30.8565 26.9055 30.7617 26.9608 30.6579 27H23.9945C23.641 27 23.3021 26.8771 23.0521 26.6583C22.8022 26.4395 22.6618 26.1428 22.6618 25.8333C22.6618 25.5239 22.8022 25.2272 23.0521 25.0084C23.3021 24.7896 23.641 24.6667 23.9945 24.6667H27.766L22.4352 19.1717L16.6781 22.17C16.4054 22.312 16.0838 22.3641 15.7711 22.3171C15.4584 22.27 15.1751 22.1269 14.9722 21.9133L8.30886 14.9133C8.19665 14.7954 8.1121 14.6593 8.06007 14.5128C8.00804 14.3663 7.98954 14.2122 8.00563 14.0594C8.02172 13.9066 8.07209 13.758 8.15385 13.6223C8.23562 13.4866 8.34716 13.3663 8.48211 13.2683C8.72187 13.0944 9.02364 12.9995 9.33502 13C9.53081 12.9997 9.72426 13.0372 9.90162 13.1098C10.079 13.1824 10.2359 13.2883 10.3612 13.42L16.2916 19.65L21.9821 16.6633C22.252 16.5232 22.5698 16.4709 22.8794 16.5157C23.189 16.5606 23.4706 16.6996 23.6746 16.9083L29.3252 22.6833V20C29.3252 19.6906 29.4656 19.3938 29.7155 19.175C29.9654 18.9563 30.3044 18.8333 30.6579 18.8333C31.0113 18.8333 31.3503 18.9563 31.6002 19.175C31.8501 19.3938 31.9905 19.6906 31.9905 20V25.8333Z" fill="white"/>
</svg>
