<svg width="40" height="40" viewBox="0 0 40 40" fill="none" xmlns="http://www.w3.org/2000/svg">
<rect width="40" height="40" rx="20" fill="#88DBED"/>
<path d="M17.0693 27.6476C16.7646 27.6476 16.4634 27.5306 16.2352 27.3023L12.6981 23.7653C12.2375 23.3053 12.2375 22.5582 12.6981 22.0982C13.1587 21.6376 13.9046 21.6376 14.3652 22.0982L17.2093 24.9423L25.8005 19.0453C26.3369 18.677 27.071 18.8135 27.4393 19.35C27.8081 19.887 27.6716 20.6206 27.1346 20.9894L17.7363 27.4406C17.5334 27.5794 17.301 27.6476 17.0693 27.6476Z" fill="white"/>
<path d="M17.0693 21.1613C16.7646 21.1613 16.4634 21.0442 16.2352 20.816L12.6981 17.2789C12.2375 16.8184 12.2375 16.0719 12.6981 15.6119C13.1587 15.1513 13.9046 15.1513 14.3652 15.6119L17.2093 18.456L25.8005 12.5589C26.3369 12.1907 27.071 12.3272 27.4393 12.8637C27.8081 13.4007 27.6716 14.1342 27.1346 14.5031L17.7363 20.9548C17.5334 21.0937 17.301 21.1613 17.0693 21.1613Z" fill="white"/>
</svg>
